<mxfile host="app.diagrams.net" agent="Mozilla/5.0 (X11; Linux x86_64; rv:127.0) Gecko/20100101 Firefox/127.0" version="24.8.1">
  <diagram name="PÃ¡gina-1" id="l8MYLLdhiasZJaIbe_Zf">
    <mxGraphModel dx="1434" dy="763" grid="1" gridSize="10" guides="1" tooltips="1" connect="1" arrows="1" fold="1" page="1" pageScale="1" pageWidth="1169" pageHeight="827" math="0" shadow="0">
      <root>
        <mxCell id="0" />
        <mxCell id="1" parent="0" />
        <mxCell id="hCbEvHzV76V9dnRMWg2s-12" style="edgeStyle=none;shape=connector;rounded=0;orthogonalLoop=1;jettySize=auto;html=1;entryX=0;entryY=0.5;entryDx=0;entryDy=0;strokeColor=default;align=center;verticalAlign=middle;fontFamily=Helvetica;fontSize=11;fontColor=default;labelBackgroundColor=default;endArrow=none;endFill=0;" edge="1" parent="1" source="hCbEvHzV76V9dnRMWg2s-1" target="hCbEvHzV76V9dnRMWg2s-5">
          <mxGeometry relative="1" as="geometry" />
        </mxCell>
        <mxCell id="hCbEvHzV76V9dnRMWg2s-1" value="departamentos" style="rounded=0;whiteSpace=wrap;html=1;" vertex="1" parent="1">
          <mxGeometry x="160" y="360" width="120" height="80" as="geometry" />
        </mxCell>
        <mxCell id="hCbEvHzV76V9dnRMWg2s-14" style="edgeStyle=none;shape=connector;rounded=0;orthogonalLoop=1;jettySize=auto;html=1;exitX=1;exitY=0.5;exitDx=0;exitDy=0;entryX=0;entryY=0.5;entryDx=0;entryDy=0;strokeColor=default;align=center;verticalAlign=middle;fontFamily=Helvetica;fontSize=11;fontColor=default;labelBackgroundColor=default;endArrow=none;endFill=0;" edge="1" parent="1" source="hCbEvHzV76V9dnRMWg2s-2" target="hCbEvHzV76V9dnRMWg2s-6">
          <mxGeometry relative="1" as="geometry" />
        </mxCell>
        <mxCell id="hCbEvHzV76V9dnRMWg2s-16" style="edgeStyle=none;shape=connector;rounded=0;orthogonalLoop=1;jettySize=auto;html=1;exitX=0.5;exitY=1;exitDx=0;exitDy=0;entryX=0.5;entryY=0;entryDx=0;entryDy=0;strokeColor=default;align=center;verticalAlign=middle;fontFamily=Helvetica;fontSize=11;fontColor=default;labelBackgroundColor=default;endArrow=none;endFill=0;" edge="1" parent="1" source="hCbEvHzV76V9dnRMWg2s-2" target="hCbEvHzV76V9dnRMWg2s-9">
          <mxGeometry relative="1" as="geometry" />
        </mxCell>
        <mxCell id="hCbEvHzV76V9dnRMWg2s-2" value="Medicos" style="rounded=0;whiteSpace=wrap;html=1;" vertex="1" parent="1">
          <mxGeometry x="520" y="360" width="120" height="80" as="geometry" />
        </mxCell>
        <mxCell id="hCbEvHzV76V9dnRMWg2s-35" style="edgeStyle=none;shape=connector;rounded=0;orthogonalLoop=1;jettySize=auto;html=1;exitX=1;exitY=0.5;exitDx=0;exitDy=0;strokeColor=default;align=center;verticalAlign=middle;fontFamily=Helvetica;fontSize=11;fontColor=default;labelBackgroundColor=default;endArrow=none;endFill=0;" edge="1" parent="1" source="hCbEvHzV76V9dnRMWg2s-3" target="hCbEvHzV76V9dnRMWg2s-34">
          <mxGeometry relative="1" as="geometry" />
        </mxCell>
        <mxCell id="hCbEvHzV76V9dnRMWg2s-3" value="Jefe departamento" style="rounded=0;whiteSpace=wrap;html=1;" vertex="1" parent="1">
          <mxGeometry x="160" y="600" width="120" height="80" as="geometry" />
        </mxCell>
        <mxCell id="hCbEvHzV76V9dnRMWg2s-29" style="edgeStyle=none;shape=connector;rounded=0;orthogonalLoop=1;jettySize=auto;html=1;exitX=0.5;exitY=1;exitDx=0;exitDy=0;entryX=0;entryY=0.5;entryDx=0;entryDy=0;strokeColor=default;align=center;verticalAlign=middle;fontFamily=Helvetica;fontSize=11;fontColor=default;labelBackgroundColor=default;endArrow=none;endFill=0;" edge="1" parent="1" source="hCbEvHzV76V9dnRMWg2s-4" target="hCbEvHzV76V9dnRMWg2s-28">
          <mxGeometry relative="1" as="geometry" />
        </mxCell>
        <mxCell id="hCbEvHzV76V9dnRMWg2s-4" value="Citas" style="rounded=0;whiteSpace=wrap;html=1;fontStyle=0" vertex="1" parent="1">
          <mxGeometry x="880" y="360" width="120" height="80" as="geometry" />
        </mxCell>
        <mxCell id="hCbEvHzV76V9dnRMWg2s-13" style="edgeStyle=none;shape=connector;rounded=0;orthogonalLoop=1;jettySize=auto;html=1;exitX=1;exitY=0.5;exitDx=0;exitDy=0;entryX=0;entryY=0.5;entryDx=0;entryDy=0;strokeColor=default;align=center;verticalAlign=middle;fontFamily=Helvetica;fontSize=11;fontColor=default;labelBackgroundColor=default;endArrow=none;endFill=0;" edge="1" parent="1" source="hCbEvHzV76V9dnRMWg2s-5" target="hCbEvHzV76V9dnRMWg2s-2">
          <mxGeometry relative="1" as="geometry" />
        </mxCell>
        <mxCell id="hCbEvHzV76V9dnRMWg2s-5" value="" style="rhombus;whiteSpace=wrap;html=1;" vertex="1" parent="1">
          <mxGeometry x="360" y="380" width="80" height="40" as="geometry" />
        </mxCell>
        <mxCell id="hCbEvHzV76V9dnRMWg2s-15" style="edgeStyle=none;shape=connector;rounded=0;orthogonalLoop=1;jettySize=auto;html=1;exitX=1;exitY=0.5;exitDx=0;exitDy=0;entryX=0;entryY=0.5;entryDx=0;entryDy=0;strokeColor=default;align=center;verticalAlign=middle;fontFamily=Helvetica;fontSize=11;fontColor=default;labelBackgroundColor=default;endArrow=none;endFill=0;" edge="1" parent="1" source="hCbEvHzV76V9dnRMWg2s-6" target="hCbEvHzV76V9dnRMWg2s-4">
          <mxGeometry relative="1" as="geometry" />
        </mxCell>
        <mxCell id="hCbEvHzV76V9dnRMWg2s-6" value="" style="rhombus;whiteSpace=wrap;html=1;" vertex="1" parent="1">
          <mxGeometry x="720" y="380" width="80" height="40" as="geometry" />
        </mxCell>
        <mxCell id="hCbEvHzV76V9dnRMWg2s-10" style="rounded=0;orthogonalLoop=1;jettySize=auto;html=1;exitX=0.5;exitY=1;exitDx=0;exitDy=0;endArrow=none;endFill=0;" edge="1" parent="1" source="hCbEvHzV76V9dnRMWg2s-7" target="hCbEvHzV76V9dnRMWg2s-3">
          <mxGeometry relative="1" as="geometry">
            <mxPoint x="340" y="600" as="targetPoint" />
            <Array as="points">
              <mxPoint x="220" y="560" />
            </Array>
          </mxGeometry>
        </mxCell>
        <mxCell id="hCbEvHzV76V9dnRMWg2s-11" style="edgeStyle=none;shape=connector;rounded=0;orthogonalLoop=1;jettySize=auto;html=1;exitX=0.5;exitY=0;exitDx=0;exitDy=0;strokeColor=default;align=center;verticalAlign=middle;fontFamily=Helvetica;fontSize=11;fontColor=default;labelBackgroundColor=default;endArrow=none;endFill=0;entryX=0.5;entryY=1;entryDx=0;entryDy=0;" edge="1" parent="1" source="hCbEvHzV76V9dnRMWg2s-7" target="hCbEvHzV76V9dnRMWg2s-1">
          <mxGeometry relative="1" as="geometry">
            <mxPoint x="250" y="460" as="targetPoint" />
          </mxGeometry>
        </mxCell>
        <mxCell id="hCbEvHzV76V9dnRMWg2s-7" value="" style="rhombus;whiteSpace=wrap;html=1;" vertex="1" parent="1">
          <mxGeometry x="180" y="500" width="80" height="40" as="geometry" />
        </mxCell>
        <mxCell id="hCbEvHzV76V9dnRMWg2s-8" value="Pacientes" style="rounded=0;whiteSpace=wrap;html=1;" vertex="1" parent="1">
          <mxGeometry x="520" y="600" width="120" height="80" as="geometry" />
        </mxCell>
        <mxCell id="hCbEvHzV76V9dnRMWg2s-17" style="edgeStyle=none;shape=connector;rounded=0;orthogonalLoop=1;jettySize=auto;html=1;exitX=0.5;exitY=1;exitDx=0;exitDy=0;strokeColor=default;align=center;verticalAlign=middle;fontFamily=Helvetica;fontSize=11;fontColor=default;labelBackgroundColor=default;endArrow=none;endFill=0;" edge="1" parent="1" source="hCbEvHzV76V9dnRMWg2s-9" target="hCbEvHzV76V9dnRMWg2s-8">
          <mxGeometry relative="1" as="geometry" />
        </mxCell>
        <mxCell id="hCbEvHzV76V9dnRMWg2s-9" value="" style="rhombus;whiteSpace=wrap;html=1;" vertex="1" parent="1">
          <mxGeometry x="540" y="500" width="80" height="40" as="geometry" />
        </mxCell>
        <mxCell id="hCbEvHzV76V9dnRMWg2s-23" style="edgeStyle=none;shape=connector;rounded=0;orthogonalLoop=1;jettySize=auto;html=1;exitX=1;exitY=0.5;exitDx=0;exitDy=0;strokeColor=default;align=center;verticalAlign=middle;fontFamily=Helvetica;fontSize=11;fontColor=default;labelBackgroundColor=default;endArrow=none;endFill=0;" edge="1" parent="1" source="hCbEvHzV76V9dnRMWg2s-18" target="hCbEvHzV76V9dnRMWg2s-22">
          <mxGeometry relative="1" as="geometry" />
        </mxCell>
        <mxCell id="hCbEvHzV76V9dnRMWg2s-18" value="Diagnosticos" style="rounded=0;whiteSpace=wrap;html=1;" vertex="1" parent="1">
          <mxGeometry x="520" y="120" width="120" height="80" as="geometry" />
        </mxCell>
        <mxCell id="hCbEvHzV76V9dnRMWg2s-20" style="edgeStyle=none;shape=connector;rounded=0;orthogonalLoop=1;jettySize=auto;html=1;exitX=0.5;exitY=0;exitDx=0;exitDy=0;strokeColor=default;align=center;verticalAlign=middle;fontFamily=Helvetica;fontSize=11;fontColor=default;labelBackgroundColor=default;endArrow=none;endFill=0;" edge="1" parent="1" source="hCbEvHzV76V9dnRMWg2s-19" target="hCbEvHzV76V9dnRMWg2s-18">
          <mxGeometry relative="1" as="geometry" />
        </mxCell>
        <mxCell id="hCbEvHzV76V9dnRMWg2s-21" style="edgeStyle=none;shape=connector;rounded=0;orthogonalLoop=1;jettySize=auto;html=1;exitX=0.5;exitY=1;exitDx=0;exitDy=0;strokeColor=default;align=center;verticalAlign=middle;fontFamily=Helvetica;fontSize=11;fontColor=default;labelBackgroundColor=default;endArrow=none;endFill=0;" edge="1" parent="1" source="hCbEvHzV76V9dnRMWg2s-19" target="hCbEvHzV76V9dnRMWg2s-2">
          <mxGeometry relative="1" as="geometry" />
        </mxCell>
        <mxCell id="hCbEvHzV76V9dnRMWg2s-19" value="" style="rhombus;whiteSpace=wrap;html=1;" vertex="1" parent="1">
          <mxGeometry x="540" y="260" width="80" height="40" as="geometry" />
        </mxCell>
        <mxCell id="hCbEvHzV76V9dnRMWg2s-26" style="edgeStyle=none;shape=connector;rounded=0;orthogonalLoop=1;jettySize=auto;html=1;exitX=0.5;exitY=1;exitDx=0;exitDy=0;strokeColor=default;align=center;verticalAlign=middle;fontFamily=Helvetica;fontSize=11;fontColor=default;labelBackgroundColor=default;endArrow=none;endFill=0;entryX=0;entryY=0.5;entryDx=0;entryDy=0;" edge="1" parent="1" source="hCbEvHzV76V9dnRMWg2s-22" target="hCbEvHzV76V9dnRMWg2s-25">
          <mxGeometry relative="1" as="geometry" />
        </mxCell>
        <mxCell id="hCbEvHzV76V9dnRMWg2s-27" style="edgeStyle=none;shape=connector;rounded=0;orthogonalLoop=1;jettySize=auto;html=1;exitX=0.5;exitY=0;exitDx=0;exitDy=0;entryX=0;entryY=0.5;entryDx=0;entryDy=0;strokeColor=default;align=center;verticalAlign=middle;fontFamily=Helvetica;fontSize=11;fontColor=default;labelBackgroundColor=default;endArrow=none;endFill=0;" edge="1" parent="1" source="hCbEvHzV76V9dnRMWg2s-22" target="hCbEvHzV76V9dnRMWg2s-24">
          <mxGeometry relative="1" as="geometry" />
        </mxCell>
        <mxCell id="hCbEvHzV76V9dnRMWg2s-22" value="" style="triangle;whiteSpace=wrap;html=1;fontFamily=Helvetica;fontSize=11;fontColor=default;labelBackgroundColor=default;" vertex="1" parent="1">
          <mxGeometry x="720" y="120" width="40" height="80" as="geometry" />
        </mxCell>
        <mxCell id="hCbEvHzV76V9dnRMWg2s-24" value="Tratamiento 1" style="rounded=0;whiteSpace=wrap;html=1;" vertex="1" parent="1">
          <mxGeometry x="800" y="80" width="80" height="40" as="geometry" />
        </mxCell>
        <mxCell id="hCbEvHzV76V9dnRMWg2s-25" value="Tratamiento 2" style="rounded=0;whiteSpace=wrap;html=1;" vertex="1" parent="1">
          <mxGeometry x="800" y="200" width="80" height="40" as="geometry" />
        </mxCell>
        <mxCell id="hCbEvHzV76V9dnRMWg2s-33" style="edgeStyle=none;shape=connector;rounded=0;orthogonalLoop=1;jettySize=auto;html=1;exitX=0.5;exitY=1;exitDx=0;exitDy=0;entryX=0.5;entryY=0;entryDx=0;entryDy=0;strokeColor=default;align=center;verticalAlign=middle;fontFamily=Helvetica;fontSize=11;fontColor=default;labelBackgroundColor=default;endArrow=none;endFill=0;" edge="1" parent="1" source="hCbEvHzV76V9dnRMWg2s-28" target="hCbEvHzV76V9dnRMWg2s-30">
          <mxGeometry relative="1" as="geometry" />
        </mxCell>
        <mxCell id="hCbEvHzV76V9dnRMWg2s-28" value="" style="triangle;whiteSpace=wrap;html=1;fontFamily=Helvetica;fontSize=11;fontColor=default;labelBackgroundColor=default;rotation=90;" vertex="1" parent="1">
          <mxGeometry x="920" y="500" width="40" height="80" as="geometry" />
        </mxCell>
        <mxCell id="hCbEvHzV76V9dnRMWg2s-30" value="Con fecha" style="rounded=0;whiteSpace=wrap;html=1;" vertex="1" parent="1">
          <mxGeometry x="840" y="600" width="80" height="40" as="geometry" />
        </mxCell>
        <mxCell id="hCbEvHzV76V9dnRMWg2s-31" value="Insitu" style="rounded=0;whiteSpace=wrap;html=1;" vertex="1" parent="1">
          <mxGeometry x="960" y="600" width="80" height="40" as="geometry" />
        </mxCell>
        <mxCell id="hCbEvHzV76V9dnRMWg2s-32" style="edgeStyle=none;shape=connector;rounded=0;orthogonalLoop=1;jettySize=auto;html=1;exitX=0.5;exitY=0;exitDx=0;exitDy=0;strokeColor=default;align=center;verticalAlign=middle;fontFamily=Helvetica;fontSize=11;fontColor=default;labelBackgroundColor=default;endArrow=none;endFill=0;entryX=0.5;entryY=0;entryDx=0;entryDy=0;" edge="1" parent="1" source="hCbEvHzV76V9dnRMWg2s-28" target="hCbEvHzV76V9dnRMWg2s-31">
          <mxGeometry relative="1" as="geometry">
            <mxPoint x="1000" y="590" as="targetPoint" />
          </mxGeometry>
        </mxCell>
        <mxCell id="hCbEvHzV76V9dnRMWg2s-36" style="edgeStyle=none;shape=connector;rounded=0;orthogonalLoop=1;jettySize=auto;html=1;exitX=1;exitY=0;exitDx=0;exitDy=0;entryX=0;entryY=1;entryDx=0;entryDy=0;strokeColor=default;align=center;verticalAlign=middle;fontFamily=Helvetica;fontSize=11;fontColor=default;labelBackgroundColor=default;endArrow=none;endFill=0;" edge="1" parent="1" source="hCbEvHzV76V9dnRMWg2s-34" target="hCbEvHzV76V9dnRMWg2s-2">
          <mxGeometry relative="1" as="geometry" />
        </mxCell>
        <mxCell id="hCbEvHzV76V9dnRMWg2s-34" value="" style="rhombus;whiteSpace=wrap;html=1;" vertex="1" parent="1">
          <mxGeometry x="360" y="520" width="80" height="40" as="geometry" />
        </mxCell>
      </root>
    </mxGraphModel>
  </diagram>
</mxfile>
